# xmcd
#
# Track frame offsets:
#	150
#	14825
#	35930
#	52789
#	84415
#	101115
#	123840
#	138422
#	156347
#	169860
#	184655
#
# Disc length: 2686 seconds
#
# Revision: 1
# Processed by: cddbd v1.5.1PL0 Copyright (c) Steve Scherf et al.
# Submitted via: CDex 1.50Beta5
#
DISCID=930a7c0b
DTITLE=さまざまなアーティスト - 音遊び
DYEAR=1900
DGENRE=
TTITLE0=恋の花
TTITLE1=芭蕉布
TTITLE2=ハイサイおじさん
TTITLE3=童神
TTITLE4=十九の春
TTITLE5=花
TTITLE6=エイサー・メドレー
TTITLE7=てぃんさぐぬ花
TTITLE8=娘ジントーヨー
TTITLE9=安里屋ユンタ
TTITLE10=肝がなさ節
EXTD=
EXTT0=
EXTT1=
EXTT2=
EXTT3=
EXTT4=
EXTT5=
EXTT6=
EXTT7=
EXTT8=
EXTT9=
EXTT10=
PLAYORDER=
